<svg width="17" height="19" viewBox="0 0 17 19" fill="none" xmlns="http://www.w3.org/2000/svg">
<path d="M7.79175 1.52563H6.37508C2.83341 1.52563 1.41675 3.05128 1.41675 6.86538V11.4423C1.41675 15.2564 2.83341 16.782 6.37508 16.782H10.6251C14.1667 16.782 15.5834 15.2564 15.5834 11.4423V9.91666" stroke="#777777" stroke-width="1.2" stroke-linecap="round" stroke-linejoin="round"/>
<path d="M11.3616 2.3037L5.77991 8.31473C5.56741 8.54358 5.35491 8.99364 5.31241 9.32165L5.00783 11.6177C4.8945 12.4492 5.43991 13.029 6.212 12.9145L8.34408 12.5865C8.64158 12.5408 9.0595 12.3119 9.27908 12.0831L14.8607 6.07204C15.8241 5.0346 16.2774 3.82935 14.8607 2.3037C13.4441 0.778063 12.3249 1.26627 11.3616 2.3037Z" stroke="#777777" stroke-width="1.2" stroke-miterlimit="10" stroke-linecap="round" stroke-linejoin="round"/>
<path d="M10.5613 3.16571C11.0359 4.98885 12.3604 6.41533 14.0604 6.93404" stroke="#777777" stroke-width="1.2" stroke-miterlimit="10" stroke-linecap="round" stroke-linejoin="round"/>
</svg>
