<svg width="42" height="42" viewBox="0 0 42 42" fill="none" xmlns="http://www.w3.org/2000/svg">
<path d="M21 10.5C22.933 10.5 24.5 8.933 24.5 7C24.5 5.067 22.933 3.5 21 3.5C19.067 3.5 17.5 5.067 17.5 7C17.5 8.933 19.067 10.5 21 10.5Z" fill="#CFCEFF"/>
<path d="M26.25 12.25H15.75C15.2859 12.25 14.8408 12.4344 14.5126 12.7626C14.1844 13.0908 14 13.5359 14 14V26.25H17.5V38.5H24.5V26.25H28V14C28 13.5359 27.8156 13.0908 27.4874 12.7626C27.1592 12.4344 26.7141 12.25 26.25 12.25Z" fill="#CFCEFF"/>
</svg>
