<svg width="24" height="26" viewBox="0 0 24 26" fill="none" xmlns="http://www.w3.org/2000/svg">
<path d="M12.0201 3.13385C8.71009 3.13385 6.02009 6.03077 6.02009 9.59539V12.7077C6.02009 13.3646 5.76009 14.3662 5.45009 14.9262L4.30009 16.9831C3.59009 18.2538 4.08009 19.6646 5.38009 20.1385C9.69009 21.6892 14.3401 21.6892 18.6501 20.1385C19.8601 19.7077 20.3901 18.1677 19.7301 16.9831L18.5801 14.9262C18.2801 14.3662 18.0201 13.3646 18.0201 12.7077V9.59539C18.0201 6.04154 15.3201 3.13385 12.0201 3.13385Z" stroke="#FCA52B" stroke-width="1.5" stroke-miterlimit="10" stroke-linecap="round"/>
<path d="M13.8699 3.44616C13.5599 3.34923 13.2399 3.27385 12.9099 3.23077C11.9499 3.10154 11.0299 3.17693 10.1699 3.44616C10.4599 2.64923 11.1799 2.08923 12.0199 2.08923C12.8599 2.08923 13.5799 2.64923 13.8699 3.44616Z" stroke="#FCA52B" stroke-width="1.5" stroke-miterlimit="10" stroke-linecap="round" stroke-linejoin="round"/>
<path d="M15.02 20.5261C15.02 22.303 13.67 23.7569 12.02 23.7569C11.2 23.7569 10.44 23.3907 9.90002 22.8092C9.36002 22.2277 9.02002 21.4092 9.02002 20.5261" stroke="#FCA52B" stroke-width="1.5" stroke-miterlimit="10"/>
</svg>
