<svg width="42" height="42" viewBox="0 0 42 42" fill="none" xmlns="http://www.w3.org/2000/svg">
<path d="M21 10.5C22.933 10.5 24.5 8.933 24.5 7C24.5 5.067 22.933 3.5 21 3.5C19.067 3.5 17.5 5.067 17.5 7C17.5 8.933 19.067 10.5 21 10.5Z" fill="#FFED9F"/>
<path d="M26.1591 13.447C26.0437 13.0982 25.8213 12.7948 25.5234 12.5798C25.2255 12.3649 24.8674 12.2495 24.5001 12.25H17.5001C17.1328 12.2498 16.7748 12.3653 16.477 12.5802C16.1791 12.7951 15.9566 13.0984 15.8411 13.447L12.3411 23.947L15.4473 24.9848L14.0001 31.5H17.5001V38.5H24.5001V31.5H28.0001L26.5528 24.983L29.6591 23.9453L26.1591 13.447Z" fill="#FFED9F"/>
</svg>
