<svg width="17" height="19" viewBox="0 0 17 19" fill="none" xmlns="http://www.w3.org/2000/svg">
<path d="M13.4524 6.66186C13.7308 6.68703 13.938 6.9563 13.9152 7.26371C13.9118 7.31482 13.5366 12.4447 13.3204 14.5966C13.1878 15.9239 12.3926 16.7302 11.1946 16.7538C10.284 16.7721 10.0636 16.782 9.15239 16.782C8.97967 16.782 8.80764 16.782 8.63493 16.7813C8.35582 16.7798 8.1299 16.5296 8.13128 16.2206C8.13197 15.9132 8.35789 15.6653 8.637 15.6653L8.89374 15.666C9.21718 15.6665 9.47679 15.6655 9.72363 15.6631L10.0907 15.6586C10.3992 15.6539 10.7277 15.6472 11.1759 15.6386C11.8661 15.6241 12.2385 15.2435 12.3152 14.4745C12.5301 12.3379 12.9045 7.22481 12.908 7.1737C12.9301 6.86629 13.1774 6.64584 13.4524 6.66186ZM3.5475 6.66163C3.82592 6.6479 4.0698 6.86682 4.09191 7.17424C4.09536 7.22534 4.46705 12.3247 4.68398 14.4781C4.75929 15.231 5.12683 15.6201 5.77625 15.6353C6.05536 15.6414 6.27713 15.897 6.2716 16.2051C6.26538 16.5095 6.04016 16.7513 5.76588 16.7513H5.75552C4.60453 16.7246 3.80934 15.9015 3.67877 14.6025C3.46045 12.4315 3.08807 7.31459 3.08462 7.26272C3.06182 6.95607 3.26908 6.6868 3.5475 6.66163ZM9.96499 1.52563C10.5937 1.52563 11.1464 1.994 11.3094 2.66527C11.382 2.96353 11.2217 3.26942 10.9522 3.34951C10.6835 3.42961 10.4058 3.25263 10.3332 2.95438C10.2883 2.77054 10.137 2.64239 9.96499 2.64239H7.03501C6.86298 2.64239 6.71168 2.77054 6.66678 2.95438L6.5058 3.84915C6.4837 3.96967 6.44915 4.08257 6.4077 4.19318H14.3693C14.6484 4.19318 14.875 4.44262 14.875 4.75079C14.875 5.05973 14.6484 5.30917 14.3693 5.30917H2.63003C2.35091 5.30917 2.125 5.05973 2.125 4.75079C2.125 4.44262 2.35091 4.19318 2.63003 4.19318H4.89262C5.19384 4.19318 5.45568 3.95594 5.51441 3.63099L5.68298 2.70036C5.85362 1.994 6.40632 1.52563 7.03501 1.52563H9.96499Z" fill="#777777"/>
<path d="M6.375 8.00964H10.625" stroke="#777777" stroke-linecap="round"/>
<path d="M6.375 10.2981H10.625" stroke="#777777" stroke-linecap="round"/>
</svg>
