<svg width="50" height="50" viewBox="0 0 50 50" fill="none" xmlns="http://www.w3.org/2000/svg">
<rect width="50" height="50" rx="25" fill="#ECEBF1"/>
<path d="M29 15.5H21C17.691 15.5 15 18.191 15 21.5V33.5C15 34.052 15.447 34.5 16 34.5H29C32.309 34.5 35 31.809 35 28.5V21.5C35 18.191 32.309 15.5 29 15.5ZM33 28.5C33 30.706 31.206 32.5 29 32.5H17V21.5C17 19.294 18.794 17.5 21 17.5H29C31.206 17.5 33 19.294 33 21.5V28.5Z" fill="#6E6D71"/>
<path d="M22.4998 26.5C23.3282 26.5 23.9998 25.8284 23.9998 25C23.9998 24.1716 23.3282 23.5 22.4998 23.5C21.6713 23.5 20.9998 24.1716 20.9998 25C20.9998 25.8284 21.6713 26.5 22.4998 26.5Z" fill="#6E6D71"/>
<path d="M27.4998 26.5C28.3282 26.5 28.9998 25.8284 28.9998 25C28.9998 24.1716 28.3282 23.5 27.4998 23.5C26.6713 23.5 25.9998 24.1716 25.9998 25C25.9998 25.8284 26.6713 26.5 27.4998 26.5Z" fill="#6E6D71"/>
</svg>
