<svg width="20" height="20" viewBox="0 0 20 20" fill="none" xmlns="http://www.w3.org/2000/svg">
<path d="M14 0H6C2.691 0 0 2.83263 0 6.31579V18.9474C0 19.5284 0.447 20 1 20H14C17.309 20 20 17.1674 20 13.6842V6.31579C20 2.83263 17.309 0 14 0ZM18 13.6842C18 16.0063 16.206 17.8947 14 17.8947H2V6.31579C2 3.99368 3.794 2.10526 6 2.10526H14C16.206 2.10526 18 3.99368 18 6.31579V13.6842Z" fill="white"/>
<path d="M7.5 11.579C8.32843 11.579 9 10.8721 9 10.0001C9 9.12806 8.32843 8.42114 7.5 8.42114C6.67157 8.42114 6 9.12806 6 10.0001C6 10.8721 6.67157 11.579 7.5 11.579Z" fill="white"/>
<path d="M12.5 11.579C13.3284 11.579 14 10.8721 14 10.0001C14 9.12806 13.3284 8.42114 12.5 8.42114C11.6716 8.42114 11 9.12806 11 10.0001C11 10.8721 11.6716 11.579 12.5 11.579Z" fill="white"/>
</svg>
