<svg width="159" height="159" viewBox="0 0 159 159" fill="none" xmlns="http://www.w3.org/2000/svg">
<path d="M18.4109 121.856C16.1481 123.438 15.5845 126.567 17.3066 128.726C24.6678 137.952 34.011 145.437 44.6681 150.608C56.8274 156.509 70.2933 159.203 83.7868 158.435C97.2804 157.667 110.354 153.463 121.765 146.22C133.176 138.978 142.547 128.939 148.986 117.056C155.426 105.174 158.721 91.8419 158.558 78.3274C158.395 64.813 154.78 51.5645 148.057 39.8402C141.333 28.116 131.723 18.3052 120.141 11.3398C109.99 5.23494 98.6184 1.49341 86.8689 0.363859C84.1202 0.0996046 81.8067 2.27996 81.7162 5.0399L81.3995 14.6966C81.309 17.4565 83.4777 19.7456 86.2204 20.067C94.6177 21.051 102.73 23.8125 110.008 28.1894C118.718 33.4274 125.944 40.8051 131 49.6217C136.057 58.4384 138.775 68.4012 138.897 78.5641C139.02 88.727 136.542 98.7524 131.699 107.688C126.857 116.624 119.81 124.173 111.229 129.62C102.648 135.066 92.8168 138.228 82.6696 138.805C72.5224 139.383 62.3961 137.357 53.2523 132.919C45.6116 129.212 38.8689 123.923 33.4598 117.425C31.6932 115.302 28.5913 114.735 26.3284 116.318L18.4109 121.856Z" fill="#EDEDED"/>
</svg>
