<svg width="24" height="24" viewBox="0 0 24 24" fill="none" xmlns="http://www.w3.org/2000/svg">
<path d="M8 2V5" stroke="white" stroke-width="1.5" stroke-miterlimit="10" stroke-linecap="round" stroke-linejoin="round"/>
<path d="M16 2V5" stroke="white" stroke-width="1.5" stroke-miterlimit="10" stroke-linecap="round" stroke-linejoin="round"/>
<path d="M16 3.5C19.33 3.68 21 4.95 21 9.65V15.83C21 19.95 20 22.01 15 22.01H9C4 22.01 3 19.95 3 15.83V9.65C3 4.95 4.67 3.69 8 3.5H16Z" stroke="white" stroke-width="1.5" stroke-miterlimit="10" stroke-linecap="round" stroke-linejoin="round"/>
<path d="M20.75 17.6001H3.25" stroke="white" stroke-width="1.5" stroke-miterlimit="10" stroke-linecap="round" stroke-linejoin="round"/>
<path d="M12 8.75C12.5303 8.75 12.9761 8.89518 13.2783 9.1377C13.5673 9.36963 13.7597 9.7165 13.7598 10.2197C13.7598 10.6634 13.5707 10.9746 13.2461 11.1982L12.5879 11.6523L13.2842 12.0459C13.7538 12.3111 14 12.7385 14 13.2305C13.9999 13.7089 13.8211 14.0643 13.5146 14.3105C13.1957 14.5668 12.6925 14.7402 12 14.7402C11.3019 14.7402 10.7996 14.5661 10.4824 14.3105C10.1779 14.0652 10.0001 13.7106 10 13.2305C10 12.7413 10.2442 12.3183 10.7139 12.041L11.3926 11.6406L10.7412 11.1973C10.4281 10.9838 10.2305 10.6629 10.2305 10.2197C10.2305 9.71819 10.424 9.37139 10.7158 9.13867C11.0209 8.89533 11.4697 8.75 12 8.75ZM12 11.6504C11.5966 11.6504 11.1937 11.7473 10.8789 11.9883C10.5479 12.2416 10.3604 12.6209 10.3604 13.0703C10.3604 13.5188 10.5473 13.8987 10.876 14.1543C11.1901 14.3985 11.5934 14.5 12 14.5C12.4066 14.5 12.8099 14.3985 13.124 14.1543C13.4527 13.8987 13.6396 13.5188 13.6396 13.0703C13.6396 12.624 13.4509 12.2462 13.123 11.9932C12.8096 11.7513 12.4067 11.6504 12 11.6504ZM12 9C11.6512 9 11.3025 9.09717 11.0322 9.3252C10.7524 9.56136 10.5996 9.9026 10.5996 10.29C10.5996 10.6739 10.7533 11.0143 11.0273 11.252C11.2945 11.4835 11.6431 11.5898 12 11.5898C12.3569 11.5898 12.7055 11.4835 12.9727 11.252C13.2467 11.0143 13.4004 10.6739 13.4004 10.29C13.4004 9.9026 13.2476 9.56136 12.9678 9.3252C12.6975 9.09717 12.3488 9 12 9Z" fill="#292D32" stroke="white"/>
</svg>
