<svg width="159" height="159" viewBox="0 0 159 159" fill="none" xmlns="http://www.w3.org/2000/svg">
<path d="M49.575 147.365C48.4707 149.896 49.6227 152.859 52.2183 153.801C61.8899 157.314 72.1687 158.916 82.4819 158.499C94.4631 158.015 106.178 154.82 116.746 149.153C127.314 143.487 136.459 135.497 143.492 125.786C150.526 116.074 155.265 104.894 157.353 93.0861C159.44 81.2782 158.823 69.1506 155.546 57.6161C152.269 46.0815 146.418 35.4405 138.434 26.4939C130.451 17.5474 120.541 10.5283 109.453 5.96516C99.9076 2.03729 89.7027 0.0171129 79.413 9.8768e-05C76.6516 -0.00446728 74.5533 2.38381 74.7228 5.14003L75.3158 14.7837C75.4853 17.5399 77.8596 19.6149 80.6203 19.6769C87.9371 19.8412 95.1759 21.3518 101.97 24.1477C110.309 27.5792 117.761 32.8575 123.765 39.5853C129.769 46.3131 134.168 54.3152 136.632 62.9892C139.096 71.6632 139.561 80.7831 137.991 89.6626C136.421 98.5421 132.857 106.95 127.568 114.253C122.279 121.556 115.402 127.564 107.455 131.825C99.5081 136.086 90.6981 138.489 81.6883 138.853C74.3472 139.15 67.0293 138.086 60.0998 135.732C57.4852 134.843 54.5433 135.978 53.439 138.509L49.575 147.365Z" fill="#EDEDED"/>
</svg>
