<svg width="159" height="159" viewBox="0 0 159 159" fill="none" xmlns="http://www.w3.org/2000/svg">
<path d="M99.6045 12.8709C101.193 7.67906 98.2748 2.11729 92.9264 1.18284C79.0238 -1.24611 64.6604 0.0709339 51.3417 5.0864C34.9423 11.262 21.051 22.6969 11.8389 37.6038C2.62675 52.5108 -1.38698 70.0497 0.424959 87.4795C1.89652 101.635 7.1432 115.071 15.5341 126.418C18.7622 130.784 25.042 130.906 28.9748 127.163C32.9077 123.42 32.9813 117.233 29.9345 112.739C24.4454 104.643 21.0032 95.2754 19.9815 85.4464C18.6189 72.3393 21.6372 59.15 28.5647 47.94C35.4922 36.7299 45.9385 28.1309 58.2709 23.4869C67.5188 20.0043 77.4366 18.893 87.1329 20.181C92.5151 20.896 98.0157 18.0627 99.6045 12.8709Z" fill="#FFED9F"/>
</svg>
