<svg width="159" height="159" viewBox="0 0 159 159" fill="none" xmlns="http://www.w3.org/2000/svg">
<path d="M97.2457 12.1944C98.6501 6.9497 95.5371 1.4946 90.159 0.7497C82.9151 -0.253613 75.5514 -0.252028 68.278 0.767336C57.7513 2.24265 47.6287 5.81974 38.5122 11.2859C29.3957 16.752 21.4715 23.9956 15.2108 32.5858C8.95009 41.1761 4.48073 50.9376 2.06849 61.2899C-0.343758 71.6422 -0.649619 82.3739 1.16909 92.8467C2.9878 103.32 6.89394 113.32 12.6552 122.253C18.4165 131.186 25.9153 138.869 34.7057 144.845C40.7793 148.975 47.3839 152.231 54.3251 154.533C59.4786 156.242 64.6822 152.725 65.7408 147.4C66.7994 142.074 63.2958 136.975 58.2165 135.056C53.8349 133.401 49.6527 131.232 45.7605 128.586C39.1502 124.091 33.5111 118.313 29.1786 111.596C24.8461 104.878 21.9087 97.3582 20.541 89.4826C19.1734 81.607 19.4034 73.5368 21.2174 65.7519C23.0314 57.967 26.3924 50.6263 31.1004 44.1664C35.8085 37.7066 41.7675 32.2594 48.6231 28.1489C55.4787 24.0383 63.0908 21.3484 71.007 20.2389C75.668 19.5857 80.3784 19.4882 85.0402 19.9406C90.4443 20.465 95.8414 17.4391 97.2457 12.1944Z" fill="#CFCEFF"/>
</svg>
